<?xml version="1.0"?>
<!DOCTYPE svg PUBLIC "-//W3C//DTD SVG 1.1//EN" "http://www.w3.org/Graphics/SVG/1.1/DTD/svg11.dtd">
<svg version='1.1' width='111px' height='33px' xmlns='http://www.w3.org/2000/svg' xmlns:xlink='http://www.w3.org/1999/xlink'>
	<g transform="translate(0.5,0.5)">
		<path d="M 81 15.5 L 81 14.5 L 81 15.5 L 81 22 L 23.5 22 L 23.5 9 L 81 9 L 81 14.5 L 109.5 14.5 L 109.5 15.5 Z M 22 31.5 L 15 31.5 L 15 15.75 L 0 15.75 L 0 12.5 L 15 12.5 L 15 0 L 22 0 Z" fill="#999999"/>
		<path d="M 81 15.5 L 81 22 L 23.5 22 L 23.5 9 L 81 9 L 81 14.5 L 109.5 14.5 L 109.5 15.5 L 81 15.5 L 81 14.5 M 15 31.5 L 15 15.75 L 0 15.75 L 0 12.5 L 15 12.5 L 15 0 L 22 0 L 22 31.5 M 15 31.5 L 14.5 31.5" fill="none" stroke-width="1" stroke-linejoin="round" stroke-linecap="round" stroke="#FFFFFF"/>
	</g>
</svg>
