<?xml version="1.0"?>
<!DOCTYPE svg PUBLIC "-//W3C//DTD SVG 1.1//EN" "http://www.w3.org/Graphics/SVG/1.1/DTD/svg11.dtd">
<svg version='1.1' width='58px' height='33px' xmlns='http://www.w3.org/2000/svg' xmlns:xlink='http://www.w3.org/1999/xlink'>
	<g transform="translate(0.5,0.5)">
		<path d="M 53.8 0.3 Q 54.8 0.3 55.5 1 Q 56.2 1.7 56.2 2.7 Q 56.2 3.7 55.5 4.4 Q 54.8 5.1 53.8 5.1 Q 52.8 5.1 52.1 4.4 Q 51.4 3.7 51.4 2.7 Q 51.4 1.7 52.1 1 Q 52.8 0.3 53.8 0.3 Z M 55.65 10.6 Q 55.5 10.6 55.5 10.55 Q 53.35 10.55 52.75 11.55 Q 49.25 11.05 48.05 11.45 Q 47.25 11.75 47.25 12.65 Q 47.25 13.55 47.3 13.65 Q 47.9 14.3 50.75 14.3 Q 55.75 14.3 55.75 11.4 Q 55.75 10.65 55.65 10.6 Z M 50.75 7.9 Q 50.75 8.7 51.1 9 Q 51.15 9 52 9.3 Q 52.5 9.1 53.05 8.85 Q 53.25 9.15 53.25 7.9 Q 53.25 7.15 53.15 7.1 Q 53 7.1 53 7.05 Q 52.05 6.75 51.45 6.9 Q 50.75 7.1 50.75 7.9 Z M 56.3 11.15 Q 56.3 13.7 54.5 15.5 Q 52.7 17.3 50.15 17.3 Q 47.6 17.3 45.8 15.5 Q 44 13.7 44 11.15 Q 44 8.6 45.8 6.8 Q 47.6 5 50.15 5 Q 52.7 5 54.5 6.8 Q 56.3 8.6 56.3 11.15 Z M 46.6 4.6 Q 45.8 5.4 44.7 5.4 Q 43.6 5.4 42.8 4.6 Q 42 3.8 42 2.7 Q 42 1.6 42.8 0.8 Q 43.6 0 44.7 0 Q 45.8 0 46.6 0.8 Q 47.4 1.6 47.4 2.7 Q 47.4 3.8 46.6 4.6 Z M 48.5 6.55 Q 46.25 5.9 46.25 7.4 Q 46.25 8.2 46.6 8.5 Q 46.65 8.5 47.5 8.8 Q 48 8.6 48.55 8.35 Q 48.75 8.65 48.75 7.4 Q 48.75 6.65 48.65 6.6 Q 48.5 6.6 48.5 6.55 Z M 24.3 20.75 Q 22.5 19.55 22.5 18.05 Q 22.5 16.85 23.65 15.85 Q 24.4 15.15 25.8 14.5 Q 29.1 13.05 33.75 13.05 Q 38.4 13.05 41.7 14.5 Q 45 16 45 18.05 Q 45 20.1 41.7 21.55 Q 39.55 22.5 36.85 22.9 Q 35.4 23.05 33.75 23.05 Q 29.1 23.05 25.8 21.55 Q 24.95 21.15 24.3 20.75 Z" fill="#663300"/>
		<path d="M 50.75 7.9 Q 50.75 7.1 51.45 6.9 Q 52.05 6.75 53 7.05 Q 53 7.1 53.15 7.1 Q 53.25 7.15 53.25 7.9 Q 53.25 9.15 53.05 8.85 Q 52.5 9.1 52 9.3 Q 51.15 9 51.1 9 Q 50.75 8.7 50.75 7.9 Z M 55.65 10.6 Q 55.75 10.65 55.75 11.4 Q 55.75 14.3 50.75 14.3 Q 47.9 14.3 47.3 13.65 Q 47.25 13.55 47.25 12.65 Q 47.25 11.75 48.05 11.45 Q 49.25 11.05 52.75 11.55 Q 53.35 10.55 55.5 10.55 Q 55.5 10.6 55.65 10.6 Z M 48.5 6.55 Q 48.5 6.6 48.65 6.6 Q 48.75 6.65 48.75 7.4 Q 48.75 8.65 48.55 8.35 Q 48 8.6 47.5 8.8 Q 46.65 8.5 46.6 8.5 Q 46.25 8.2 46.25 7.4 Q 46.25 5.9 48.5 6.55 Z" fill="#000000"/>
		<path d="M 53.8 0.3 Q 54.8 0.3 55.5 1 Q 56.2 1.7 56.2 2.7 Q 56.2 3.7 55.5 4.4 Q 54.8 5.1 53.8 5.1 Q 52.8 5.1 52.1 4.4 Q 51.4 3.7 51.4 2.7 Q 51.4 1.7 52.1 1 Q 52.8 0.3 53.8 0.3 Z M 56.3 11.15 Q 56.3 13.7 54.5 15.5 Q 52.7 17.3 50.15 17.3 Q 47.6 17.3 45.8 15.5 Q 44 13.7 44 11.15 Q 44 8.6 45.8 6.8 Q 47.6 5 50.15 5 Q 52.7 5 54.5 6.8 Q 56.3 8.6 56.3 11.15 Z M 46.6 4.6 Q 45.8 5.4 44.7 5.4 Q 43.6 5.4 42.8 4.6 Q 42 3.8 42 2.7 Q 42 1.6 42.8 0.8 Q 43.6 0 44.7 0 Q 45.8 0 46.6 0.8 Q 47.4 1.6 47.4 2.7 Q 47.4 3.8 46.6 4.6 Z M 23.65 15.85 Q 24.4 15.15 25.8 14.5 Q 29.1 13.05 33.75 13.05 Q 38.4 13.05 41.7 14.5 Q 45 16 45 18.05 Q 45 20.1 41.7 21.55 Q 39.55 22.5 36.85 22.9 L 44.5 30.55 M 36.85 22.9 Q 35.4 23.05 33.75 23.05 Q 29.1 23.05 25.8 21.55 Q 24.95 21.15 24.3 20.75 L 24.3 30.05 M 24.3 20.75 Q 22.5 19.55 22.5 18.05 Q 22.5 16.85 23.65 15.85 Q 18.15 17.55 13.65 17.85 M 0 14.05 Q 5.2 18.35 13.65 17.85 M 24.3 20.75 L 19 27.55 M 36.85 22.9 L 36.85 31.05" fill="none" stroke-width="1" stroke-linejoin="round" stroke-linecap="round" stroke="#663300"/>
		<path d="M 13.65 17.85 L 24.3 20.75 M 13.65 17.85 L 0 14.05" fill="none" stroke-width="1" stroke-linejoin="round" stroke-linecap="round" stroke="#000000"/>
	</g>
</svg>
