<?xml version="1.0"?>
<!DOCTYPE svg PUBLIC "-//W3C//DTD SVG 1.1//EN" "http://www.w3.org/Graphics/SVG/1.1/DTD/svg11.dtd">
<svg version='1.1' width='303px' height='82px' xmlns='http://www.w3.org/2000/svg' xmlns:xlink='http://www.w3.org/1999/xlink'>
	<g transform="translate(0.5,-56.1)">
		<path d="M 244.45 112 L 259.95 112 Z M 244.45 118.5 L 252.95 118.5 Q 255.2 117.5 255.95 117.5 Q 258.45 118.5 259.45 118.5 Q 258.45 118.5 255.95 117.5 Q 255.2 117.5 252.95 118.5 Z M 246.95 106.5 Q 249.65 106.6 249.7 104 Q 254.75 102.3 256.45 105.5 Q 259.45 105.25 259.45 105 Q 259.45 105.25 256.45 105.5 Q 254.75 102.3 249.7 104 Q 249.65 106.6 246.95 106.5 Z M 243.95 100 L 250.2 97.7 Q 250.15 97.45 250.1 97.2 Q 249.9 95.8 250 94.2 Q 250 94 250.05 93.8 L 244.95 94 L 250.05 93.8 Q 250.1 92.7 249.95 93.5 Q 250.1 92.7 250.05 93.8 Q 250 94 250 94.2 Q 249.9 95.8 250.1 97.2 Q 250.15 97.45 250.2 97.7 L 251.95 97 L 250.2 97.7 Q 250.35 98.75 250.7 99.1 Q 251.1 99.55 251.95 97 Q 251.1 99.55 250.7 99.1 Q 250.35 98.75 250.2 97.7 Z M 250.05 93.8 L 257.95 93.5 Z M 251.95 97 L 256.45 97 Z M 238.95 125 L 238.95 90 L 263.95 90 L 263.95 125 Z M 164 125 L 139 125 L 139 90 L 164 90 Z M 145 94 L 150.1 93.8 Z M 150.1 93.8 Q 150.05 94 150.05 94.2 Q 149.95 95.8 150.15 97.2 Q 150.2 97.45 150.25 97.7 Q 150.2 97.45 150.15 97.2 Q 149.95 95.8 150.05 94.2 Q 150.05 94 150.1 93.8 Q 150.15 92.7 150 93.5 Q 150.15 92.7 150.1 93.8 L 158 93.5 Z M 144 100 L 150.25 97.7 Q 150.4 98.75 150.75 99.1 Q 151.15 99.55 152 97 Q 151.15 99.55 150.75 99.1 Q 150.4 98.75 150.25 97.7 L 152 97 L 156.5 97 L 152 97 L 150.25 97.7 Z M 38 90 L 42.2 90 L 45.5 90 L 56.8 90 L 56.8 125 L 31.8 125 L 31.8 90 Z M 36.8 100 L 43.05 97.7 Q 43.2 98.75 43.55 99.1 Q 43.95 99.55 44.8 97 Q 43.95 99.55 43.55 99.1 Q 43.2 98.75 43.05 97.7 L 44.8 97 L 49.3 97 L 44.8 97 L 43.05 97.7 Z M 37.8 94 L 42.9 93.8 L 50.8 93.5 L 42.9 93.8 Q 42.85 94 42.85 94.2 Q 42.75 95.8 42.95 97.2 Q 43 97.45 43.05 97.7 Q 43 97.45 42.95 97.2 Q 42.75 95.8 42.85 94.2 Q 42.85 94 42.9 93.8 Z M 42.8 93.5 Q 42.95 92.7 42.9 93.8 Q 42.95 92.7 42.8 93.5 Z M 37.3 118.5 L 45.8 118.5 Q 48.05 117.5 48.8 117.5 Q 51.3 118.5 52.3 118.5 Q 51.3 118.5 48.8 117.5 Q 48.05 117.5 45.8 118.5 Z M 39.8 106.5 Q 42.5 106.6 42.55 104 Q 47.6 102.3 49.3 105.5 Q 52.3 105.25 52.3 105 Q 52.3 105.25 49.3 105.5 Q 47.6 102.3 42.55 104 Q 42.5 106.6 39.8 106.5 Z M 37.3 112 L 52.8 112 Z M 144.5 112 L 160 112 Z M 144.5 118.5 L 153 118.5 Q 155.25 117.5 156 117.5 Q 158.5 118.5 159.5 118.5 Q 158.5 118.5 156 117.5 Q 155.25 117.5 153 118.5 Z M 147 106.5 Q 149.7 106.6 149.75 104 Q 154.8 102.3 156.5 105.5 Q 159.5 105.25 159.5 105 Q 159.5 105.25 156.5 105.5 Q 154.8 102.3 149.75 104 Q 149.7 106.6 147 106.5 Z" fill="#FFFFFF"/>
		<path d="M 222.95 89 L 250.95 89 L 255.15 89 L 292.25 89 L 301.95 89 L 301.95 136.5 L 212.95 136.5 L 212.95 89 Z M 164 125 L 164 90 L 139 90 L 139 125 Z M 238.95 125 L 263.95 125 L 263.95 90 L 238.95 90 Z M 148.75 89 L 151.7 89 L 198.5 89 L 198.5 136.5 L 109.5 136.5 L 109.5 89 Z M 31.8 90 L 31.8 125 L 56.8 125 L 56.8 90 L 79.3 90 L 89 90 L 89 137.5 L 0 137.5 L 0 90 L 10 90 Z" fill="#663300"/>
		<path d="M 222.95 89 L 250.95 65.5 L 250.95 56.6 M 255.15 87.5 L 255.15 89 M 292.25 89 L 250.95 65.5 L 250.95 89 M 148.75 89 L 148.75 65 L 116.3 87.5 M 148.75 56.6 L 148.75 65 L 180.25 84 M 151.7 89 L 151.7 87.5 M 38 90 L 38 89 M 10 90 L 11.2 89 M 45.5 56.6 L 45.5 69 L 67.3 87.5 M 42.2 90 L 42.2 89 M 45.5 90 L 45.5 69 L 15.8 69 M 79.3 90 L 77.55 89" fill="none" stroke-width="1" stroke-linejoin="round" stroke-linecap="round" stroke="#660000"/>
		<path d="M 250.05 93.8 Q 250.1 92.7 249.95 93.5 M 250.2 97.7 Q 250.35 98.75 250.7 99.1 Q 251.1 99.55 251.95 97 M 250.2 97.7 Q 250.15 97.45 250.1 97.2 Q 249.9 95.8 250 94.2 Q 250 94 250.05 93.8 M 238.95 125 L 238.95 90 L 263.95 90 L 263.95 125 Z M 164 125 L 139 125 L 139 90 L 164 90 Z M 150.1 93.8 Q 150.15 92.7 150 93.5 M 150.1 93.8 Q 150.05 94 150.05 94.2 Q 149.95 95.8 150.15 97.2 Q 150.2 97.45 150.25 97.7 Q 150.4 98.75 150.75 99.1 Q 151.15 99.55 152 97 M 31.8 90 L 38 90 L 42.2 90 L 45.5 90 L 56.8 90 L 56.8 125 L 31.8 125 Z M 42.9 93.8 Q 42.85 94 42.85 94.2 Q 42.75 95.8 42.95 97.2 Q 43 97.45 43.05 97.7 Q 43.2 98.75 43.55 99.1 Q 43.95 99.55 44.8 97 M 42.8 93.5 Q 42.95 92.7 42.9 93.8" fill="none" stroke-width="1" stroke-linejoin="round" stroke-linecap="round" stroke="#FFFFFF"/>
		<path d="M 251.95 97 L 250.2 97.7 M 250.05 93.8 L 244.95 94 M 250.05 93.8 L 257.95 93.5 M 251.95 97 L 256.45 97 M 244.45 112 L 259.95 112 M 244.45 118.5 L 252.95 118.5 Q 255.2 117.5 255.95 117.5 Q 258.45 118.5 259.45 118.5 M 246.95 106.5 Q 249.65 106.6 249.7 104 Q 254.75 102.3 256.45 105.5 Q 259.45 105.25 259.45 105 M 243.95 100 L 250.2 97.7 M 145 94 L 150.1 93.8 L 158 93.5 M 150.25 97.7 L 152 97 L 156.5 97 M 43.05 97.7 L 44.8 97 L 49.3 97 M 42.9 93.8 L 50.8 93.5 M 37.8 94 L 42.9 93.8 M 37.3 118.5 L 45.8 118.5 Q 48.05 117.5 48.8 117.5 Q 51.3 118.5 52.3 118.5 M 39.8 106.5 Q 42.5 106.6 42.55 104 Q 47.6 102.3 49.3 105.5 Q 52.3 105.25 52.3 105 M 37.3 112 L 52.8 112 M 144.5 112 L 160 112 M 144.5 118.5 L 153 118.5 Q 155.25 117.5 156 117.5 Q 158.5 118.5 159.5 118.5 M 147 106.5 Q 149.7 106.6 149.75 104 Q 154.8 102.3 156.5 105.5 Q 159.5 105.25 159.5 105 M 36.8 100 L 43.05 97.7 M 144 100 L 150.25 97.7" fill="none" stroke-width="1" stroke-linejoin="round" stroke-linecap="round" stroke="#000000"/>
		<path d="M 255.15 89 L 292.25 89 L 301.95 89 L 301.95 136.5 L 212.95 136.5 L 212.95 89 L 222.95 89 L 250.95 89 Z M 151.7 89 L 198.5 89 L 198.5 136.5 L 109.5 136.5 L 109.5 89 L 148.75 89 Z M 31.8 90 L 10 90 L 0 90 L 0 137.5 L 89 137.5 L 89 90 L 79.3 90 L 56.8 90" fill="none" stroke-width="1" stroke-linejoin="round" stroke-linecap="round" stroke="#663300"/>
	</g>
</svg>
