<?xml version="1.0"?>
<!DOCTYPE svg PUBLIC "-//W3C//DTD SVG 1.1//EN" "http://www.w3.org/Graphics/SVG/1.1/DTD/svg11.dtd">
<svg version='1.1' width='354px' height='116px' xmlns='http://www.w3.org/2000/svg' xmlns:xlink='http://www.w3.org/1999/xlink'>
	<g transform="translate(-106.7,32.1)">
	<clipPath id="clip_64"><rect x="-2" y="-2" width="69" height="22.6"/></clipPath><text clip-path="url(#clip_64)" width="69" height="22.6" transform="translate(267.9, -30.1)" style="text-rendering: optimizeLegibility;kerning: 0;font-family: '_Trebuchet MS Bold';font-size: 16px;fill: #FFFFFF;"><tspan y="15" x="4.7 11.6 19.8 29.3 38.5 47 53.4">*cheat*</tspan></text>
	<clipPath id="clip_65"><rect x="-2" y="-2" width="170.2" height="22.6"/></clipPath><text clip-path="url(#clip_65)" width="170.2" height="22.6" transform="translate(108.7, -4)" style="text-rendering: optimizeLegibility;kerning: 0;font-family: '_Trebuchet MS Bold';font-size: 16px;fill: #FFFFFF;"><tspan y="15" x="5.2 12.1 16.8 25.9 34.9 43.7 48.5 57 63.4 68.2 74.1 80.9 85.7 94.9 104.3 113.6 120.5 125.3 131.7 140.9 147.8 154.1">*look at friends test*</tspan></text>
	<clipPath id="clip_66"><rect x="-2" y="-2" width="69" height="22.6"/></clipPath><text clip-path="url(#clip_66)" width="69" height="22.6" transform="translate(393.6, 17)" style="text-rendering: optimizeLegibility;kerning: 0;font-family: '_Trebuchet MS Bold';font-size: 16px;fill: #FFFFFF;"><tspan y="15" x="4.7 11.6 19.8 29.3 38.5 47 53.4">*cheat*</tspan></text>
	<clipPath id="clip_67"><rect x="-2" y="-2" width="69" height="22.6"/></clipPath><text clip-path="url(#clip_67)" width="69" height="22.6" transform="translate(169, 63)" style="text-rendering: optimizeLegibility;kerning: 0;font-family: '_Trebuchet MS Bold';font-size: 16px;fill: #FFFFFF;"><tspan y="15" x="4.7 11.6 19.8 29.3 38.5 47 53.4">*cheat*</tspan></text>
	</g>
</svg>
