<?xml version="1.0"?>
<!DOCTYPE svg PUBLIC "-//W3C//DTD SVG 1.1//EN" "http://www.w3.org/Graphics/SVG/1.1/DTD/svg11.dtd">
<svg version='1.1' width='274px' height='87px' xmlns='http://www.w3.org/2000/svg' xmlns:xlink='http://www.w3.org/1999/xlink'>
	<g transform="translate(0.5,0.5)">
		<path d="M 238.7 37.9 Q 239 38.2 239.35 38.55 Q 242.2 41.4 243.6 44.8 Q 255.65 44.9 264.2 50.4 Q 272.95 56 272.95 63.9 Q 272.95 71.8 264.2 77.4 Q 255.45 83 243.05 83 Q 230.65 83 221.9 77.4 Q 214.45 72.65 213.35 66.2 Q 212.9 65.8 212.5 65.4 Q 210.6 63.5 209.4 61.35 Q 208.05 61.85 206.7 62.35 Q 182.4 71 148 71 Q 146.65 71 145.3 71 Q 142.7 75.05 137.75 78.45 Q 127.45 85.5 112.9 85.5 Q 98.35 85.5 88.05 78.45 Q 84.85 76.25 82.65 73.8 Q 82.6 73.8 82.55 73.85 Q 68.4 81 48.35 81 Q 28.3 81 14.15 73.85 Q 0 66.75 0 56.7 Q 0 46.65 14.15 39.5 Q 28.3 32.4 48.35 32.4 Q 58.6 32.4 67.35 34.3 Q 69.75 30.7 74.7 27.5 Q 63 22.9 63 16.5 Q 63 9.65 76.4 4.8 Q 89.8 0 108.75 0 Q 127.7 0 141.1 4.8 Q 149.9 8 152.95 12.05 Q 163.25 12.25 172.65 13.25 Q 175.2 11.05 178.95 9.15 Q 190.95 3 207.95 3 Q 224.95 3 236.95 9.15 Q 248.95 15.3 248.95 24 Q 248.95 32.05 238.7 37.9 Q 233.35 33 225.95 33 Q 218.1 33 212.5 38.55 Q 209.6 41.45 208.25 45 Q 208.1 45 207.95 45 Q 190.95 45 178.95 38.85 Q 166.95 32.7 166.95 24 Q 166.95 18 172.65 13.25 Q 166.95 18 166.95 24 Q 166.95 32.7 178.95 38.85 Q 190.95 45 207.95 45 Q 208.1 45 208.25 45 Q 209.6 41.45 212.5 38.55 Q 218.1 33 225.95 33 Q 233.35 33 238.7 37.9 Z M 243.6 44.8 Q 244.95 48.15 244.95 52 Q 244.95 59.85 239.35 65.4 Q 233.8 71 225.95 71 Q 218.7 71 213.35 66.2 Q 218.7 71 225.95 71 Q 233.8 71 239.35 65.4 Q 244.95 59.85 244.95 52 Q 244.95 48.15 243.6 44.8 Z M 209.4 61.35 Q 206.95 57.2 206.95 52 Q 206.95 48.25 208.25 45 Q 206.95 48.25 206.95 52 Q 206.95 57.2 209.4 61.35 Z M 152.95 12.05 Q 154.5 14.15 154.5 16.5 Q 154.5 23.35 141.1 28.15 Q 127.7 33 108.75 33 Q 89.8 33 76.4 28.15 Q 75.5 27.85 74.7 27.5 Q 75.5 27.85 76.4 28.15 Q 89.8 33 108.75 33 Q 127.7 33 141.1 28.15 Q 154.5 23.35 154.5 16.5 Q 154.5 14.15 152.95 12.05 Z M 82.65 73.8 Q 77.75 68.3 77.75 61.4 Q 77.75 51.4 88.05 44.35 Q 88.6 43.95 89.2 43.6 Q 86.4 41.45 82.55 39.5 Q 75.65 36.05 67.35 34.3 Q 75.65 36.05 82.55 39.5 Q 86.4 41.45 89.2 43.6 Q 88.6 43.95 88.05 44.35 Q 77.75 51.4 77.75 61.4 Q 77.75 68.3 82.65 73.8 Z M 89.2 43.6 Q 99.15 37.3 112.9 37.3 Q 127.45 37.3 137.75 44.35 Q 148.05 51.4 148.05 61.4 Q 148.05 66.6 145.3 71 Q 148.05 66.6 148.05 61.4 Q 148.05 51.4 137.75 44.35 Q 127.45 37.3 112.9 37.3 Q 99.15 37.3 89.2 43.6 Z" fill="#CCCCCC"/>
		<path d="M 243.6 44.8 Q 255.65 44.9 264.2 50.4 Q 272.95 56 272.95 63.9 Q 272.95 71.8 264.2 77.4 Q 255.45 83 243.05 83 Q 230.65 83 221.9 77.4 Q 214.45 72.65 213.35 66.2 M 209.4 61.35 Q 208.05 61.85 206.7 62.35 Q 182.4 71 148 71 Q 146.65 71 145.3 71 Q 142.7 75.05 137.75 78.45 Q 127.45 85.5 112.9 85.5 Q 98.35 85.5 88.05 78.45 Q 84.85 76.25 82.65 73.8 Q 82.6 73.8 82.55 73.85 Q 68.4 81 48.35 81 Q 28.3 81 14.15 73.85 Q 0 66.75 0 56.7 Q 0 46.65 14.15 39.5 Q 28.3 32.4 48.35 32.4 Q 58.6 32.4 67.35 34.3 Q 69.75 30.7 74.7 27.5 Q 63 22.9 63 16.5 Q 63 9.65 76.4 4.8 Q 89.8 0 108.75 0 Q 127.7 0 141.1 4.8 Q 149.9 8 152.95 12.05 Q 163.25 12.25 172.65 13.25 Q 175.2 11.05 178.95 9.15 Q 190.95 3 207.95 3 Q 224.95 3 236.95 9.15 Q 248.95 15.3 248.95 24 Q 248.95 32.05 238.7 37.9 M 243.6 44.8 Q 244.95 48.15 244.95 52 Q 244.95 59.85 239.35 65.4 Q 233.8 71 225.95 71 Q 218.7 71 213.35 66.2 M 172.65 13.25 Q 166.95 18 166.95 24 Q 166.95 32.7 178.95 38.85 Q 190.95 45 207.95 45 Q 208.1 45 208.25 45 Q 209.6 41.45 212.5 38.55 Q 218.1 33 225.95 33 Q 233.35 33 238.7 37.9 M 209.4 61.35 Q 206.95 57.2 206.95 52 Q 206.95 48.25 208.25 45 M 152.95 12.05 Q 154.5 14.15 154.5 16.5 Q 154.5 23.35 141.1 28.15 Q 127.7 33 108.75 33 Q 89.8 33 76.4 28.15 Q 75.5 27.85 74.7 27.5 M 82.65 73.8 Q 77.75 68.3 77.75 61.4 Q 77.75 51.4 88.05 44.35 Q 88.6 43.95 89.2 43.6 Q 86.4 41.45 82.55 39.5 Q 75.65 36.05 67.35 34.3 M 89.2 43.6 Q 99.15 37.3 112.9 37.3 Q 127.45 37.3 137.75 44.35 Q 148.05 51.4 148.05 61.4 Q 148.05 66.6 145.3 71" fill="none" stroke-width="1" stroke-linejoin="round" stroke-linecap="round" stroke="#CCCCCC"/>
		<path d="M 213.35 66.2 Q 212.9 65.8 212.5 65.4 Q 210.6 63.5 209.4 61.35 M 238.7 37.9 Q 239 38.2 239.35 38.55 Q 242.2 41.4 243.6 44.8" fill="none" stroke-width="1" stroke-linejoin="round" stroke-linecap="round" stroke="#999999"/>
	</g>
</svg>
