<?xml version="1.0"?>
<!DOCTYPE svg PUBLIC "-//W3C//DTD SVG 1.1//EN" "http://www.w3.org/Graphics/SVG/1.1/DTD/svg11.dtd">
<svg version='1.1' width='501px' height='191px' xmlns='http://www.w3.org/2000/svg' xmlns:xlink='http://www.w3.org/1999/xlink'>
	<g transform="translate(0.5,-37.5)">
		<path d="M 430.95 228 L 430.95 117 L 499.95 117 L 499.95 228 L 430.95 228 L 168 228 L 168 111 L 349.95 111 L 349.95 38 L 430.95 38 L 430.95 117 Z M 111.45 66.45 L 96.45 66.45 L 96.45 81.45 L 111.45 81.45 Z M 165 227.45 L 1.45 227.45 L 1.45 175.95 L 40.45 175.95 L 40.45 124.45 L 85.45 124.45 L 85.45 56.45 L 166.45 56.45 L 166.45 227.45 Z" fill="#000000"/>
		<path d="M 430.95 117 L 499.95 117 L 499.95 228 L 430.95 228 L 168 228 L 168 111 L 349.95 111 L 349.95 38 L 430.95 38 Z M 430.95 228 L 430.95 117 M 84 123.95 L 84 57 L 84.95 57 M 39 175.45 L 39 125 L 39.95 125 M 165 227.45 L 165 228 L 0 228 L 0 176.5 L 0.95 176.5" fill="none" stroke-width="1" stroke-linejoin="round" stroke-linecap="round" stroke="#000000"/>
	</g>
</svg>
