<?xml version="1.0"?>
<!DOCTYPE svg PUBLIC "-//W3C//DTD SVG 1.1//EN" "http://www.w3.org/Graphics/SVG/1.1/DTD/svg11.dtd">
<svg version='1.1' width='274px' height='87px' xmlns='http://www.w3.org/2000/svg' xmlns:xlink='http://www.w3.org/1999/xlink'>
	<g transform="translate(190.5,0.5)">
		<path d="M 23.35 66.2 Q 22.9 65.8 22.5 65.4 Q 20.6 63.5 19.4 61.35 Q 18.05 61.85 16.7 62.35 Q -7.6 71 -42 71 Q -43.35 71 -44.7 71 Q -47.3 75.05 -52.25 78.45 Q -62.55 85.5 -77.1 85.5 Q -91.65 85.5 -101.95 78.45 Q -105.15 76.25 -107.35 73.8 Q -107.4 73.8 -107.45 73.85 Q -121.6 81 -141.65 81 Q -161.7 81 -175.85 73.85 Q -190 66.75 -190 56.7 Q -190 46.65 -175.85 39.5 Q -161.7 32.4 -141.65 32.4 Q -131.4 32.4 -122.65 34.3 Q -120.25 30.7 -115.3 27.5 Q -127 22.9 -127 16.5 Q -127 9.65 -113.6 4.8 Q -100.2 0 -81.25 0 Q -62.3 0 -48.9 4.8 Q -40.1 8 -37.05 12.05 Q -26.75 12.25 -17.35 13.25 Q -14.8 11.05 -11.05 9.15 Q 0.95 3 17.95 3 Q 34.95 3 46.95 9.15 Q 58.95 15.3 58.95 24 Q 58.95 32.05 48.7 37.9 Q 49 38.2 49.35 38.55 Q 52.2 41.4 53.6 44.8 Q 65.65 44.9 74.2 50.4 Q 82.95 56 82.95 63.9 Q 82.95 71.8 74.2 77.4 Q 65.45 83 53.05 83 Q 40.65 83 31.9 77.4 Q 24.45 72.65 23.35 66.2 Q 28.7 71 35.95 71 Q 43.8 71 49.35 65.4 Q 54.95 59.85 54.95 52 Q 54.95 48.15 53.6 44.8 Q 54.95 48.15 54.95 52 Q 54.95 59.85 49.35 65.4 Q 43.8 71 35.95 71 Q 28.7 71 23.35 66.2 Z M -17.35 13.25 Q -23.05 18 -23.05 24 Q -23.05 32.7 -11.05 38.85 Q 0.95 45 17.95 45 Q 18.1 45 18.25 45 Q 19.6 41.45 22.5 38.55 Q 28.1 33 35.95 33 Q 43.35 33 48.7 37.9 Q 43.35 33 35.95 33 Q 28.1 33 22.5 38.55 Q 19.6 41.45 18.25 45 Q 18.1 45 17.95 45 Q 0.95 45 -11.05 38.85 Q -23.05 32.7 -23.05 24 Q -23.05 18 -17.35 13.25 Z M 19.4 61.35 Q 16.95 57.2 16.95 52 Q 16.95 48.25 18.25 45 Q 16.95 48.25 16.95 52 Q 16.95 57.2 19.4 61.35 Z M -37.05 12.05 Q -35.5 14.15 -35.5 16.5 Q -35.5 23.35 -48.9 28.15 Q -62.3 33 -81.25 33 Q -100.2 33 -113.6 28.15 Q -114.5 27.85 -115.3 27.5 Q -114.5 27.85 -113.6 28.15 Q -100.2 33 -81.25 33 Q -62.3 33 -48.9 28.15 Q -35.5 23.35 -35.5 16.5 Q -35.5 14.15 -37.05 12.05 Z M -122.65 34.3 Q -114.35 36.05 -107.45 39.5 Q -103.6 41.45 -100.8 43.6 Q -90.85 37.3 -77.1 37.3 Q -62.55 37.3 -52.25 44.35 Q -41.95 51.4 -41.95 61.4 Q -41.95 66.6 -44.7 71 Q -41.95 66.6 -41.95 61.4 Q -41.95 51.4 -52.25 44.35 Q -62.55 37.3 -77.1 37.3 Q -90.85 37.3 -100.8 43.6 Q -103.6 41.45 -107.45 39.5 Q -114.35 36.05 -122.65 34.3 Z M -107.35 73.8 Q -112.25 68.3 -112.25 61.4 Q -112.25 51.4 -101.95 44.35 Q -101.4 43.95 -100.8 43.6 Q -101.4 43.95 -101.95 44.35 Q -112.25 51.4 -112.25 61.4 Q -112.25 68.3 -107.35 73.8 Z" fill="#CCCCCC"/>
		<path d="M 19.4 61.35 Q 18.05 61.85 16.7 62.35 Q -7.6 71 -42 71 Q -43.35 71 -44.7 71 Q -47.3 75.05 -52.25 78.45 Q -62.55 85.5 -77.1 85.5 Q -91.65 85.5 -101.95 78.45 Q -105.15 76.25 -107.35 73.8 Q -107.4 73.8 -107.45 73.85 Q -121.6 81 -141.65 81 Q -161.7 81 -175.85 73.85 Q -190 66.75 -190 56.7 Q -190 46.65 -175.85 39.5 Q -161.7 32.4 -141.65 32.4 Q -131.4 32.4 -122.65 34.3 Q -120.25 30.7 -115.3 27.5 Q -127 22.9 -127 16.5 Q -127 9.65 -113.6 4.8 Q -100.2 0 -81.25 0 Q -62.3 0 -48.9 4.8 Q -40.1 8 -37.05 12.05 Q -26.75 12.25 -17.35 13.25 Q -14.8 11.05 -11.05 9.15 Q 0.95 3 17.95 3 Q 34.95 3 46.95 9.15 Q 58.95 15.3 58.95 24 Q 58.95 32.05 48.7 37.9 M 53.6 44.8 Q 65.65 44.9 74.2 50.4 Q 82.95 56 82.95 63.9 Q 82.95 71.8 74.2 77.4 Q 65.45 83 53.05 83 Q 40.65 83 31.9 77.4 Q 24.45 72.65 23.35 66.2 M -17.35 13.25 Q -23.05 18 -23.05 24 Q -23.05 32.7 -11.05 38.85 Q 0.95 45 17.95 45 Q 18.1 45 18.25 45 Q 19.6 41.45 22.5 38.55 Q 28.1 33 35.95 33 Q 43.35 33 48.7 37.9 M 53.6 44.8 Q 54.95 48.15 54.95 52 Q 54.95 59.85 49.35 65.4 Q 43.8 71 35.95 71 Q 28.7 71 23.35 66.2 M 19.4 61.35 Q 16.95 57.2 16.95 52 Q 16.95 48.25 18.25 45 M -37.05 12.05 Q -35.5 14.15 -35.5 16.5 Q -35.5 23.35 -48.9 28.15 Q -62.3 33 -81.25 33 Q -100.2 33 -113.6 28.15 Q -114.5 27.85 -115.3 27.5 M -122.65 34.3 Q -114.35 36.05 -107.45 39.5 Q -103.6 41.45 -100.8 43.6 Q -90.85 37.3 -77.1 37.3 Q -62.55 37.3 -52.25 44.35 Q -41.95 51.4 -41.95 61.4 Q -41.95 66.6 -44.7 71 M -107.35 73.8 Q -112.25 68.3 -112.25 61.4 Q -112.25 51.4 -101.95 44.35 Q -101.4 43.95 -100.8 43.6" fill="none" stroke-width="1" stroke-linejoin="round" stroke-linecap="round" stroke="#CCCCCC"/>
		<path d="M 48.7 37.9 Q 49 38.2 49.35 38.55 Q 52.2 41.4 53.6 44.8 M 23.35 66.2 Q 22.9 65.8 22.5 65.4 Q 20.6 63.5 19.4 61.35" fill="none" stroke-width="1" stroke-linejoin="round" stroke-linecap="round" stroke="#999999"/>
	</g>
</svg>
